<?xml version="1.0" encoding="UTF-8"?>
<svg xmlns="http://www.w3.org/2000/svg" version="1.1" width="300" height="300" viewBox="0 0 300 300"><rect x="0" y="0" width="300" height="300" fill="#ffffff"/><g transform="scale(10.345)"><g transform="translate(0,0)"><path fill-rule="evenodd" d="M8 0L8 4L10 4L10 3L11 3L11 4L12 4L12 2L11 2L11 0ZM12 0L12 1L14 1L14 2L15 2L15 1L16 1L16 3L15 3L15 5L14 5L14 3L13 3L13 5L11 5L11 6L10 6L10 7L9 7L9 5L8 5L8 7L9 7L9 8L10 8L10 7L11 7L11 6L12 6L12 8L11 8L11 9L9 9L9 10L11 10L11 11L10 11L10 13L9 13L9 14L6 14L6 13L7 13L7 12L9 12L9 11L8 11L8 9L7 9L7 8L4 8L4 9L7 9L7 10L5 10L5 11L7 11L7 12L6 12L6 13L5 13L5 12L4 12L4 14L6 14L6 15L8 15L8 16L10 16L10 17L7 17L7 16L5 16L5 15L4 15L4 16L2 16L2 15L3 15L3 13L2 13L2 15L1 15L1 12L0 12L0 15L1 15L1 16L2 16L2 17L3 17L3 18L2 18L2 19L3 19L3 18L4 18L4 21L8 21L8 22L9 22L9 19L10 19L10 21L11 21L11 24L9 24L9 23L8 23L8 25L10 25L10 27L11 27L11 28L9 28L9 27L8 27L8 29L11 29L11 28L13 28L13 27L14 27L14 29L15 29L15 27L16 27L16 28L17 28L17 29L18 29L18 28L19 28L19 29L22 29L22 28L23 28L23 27L24 27L24 25L25 25L25 27L26 27L26 26L27 26L27 29L28 29L28 28L29 28L29 24L28 24L28 23L29 23L29 17L28 17L28 16L29 16L29 13L28 13L28 12L29 12L29 8L25 8L25 9L24 9L24 8L23 8L23 9L20 9L20 7L21 7L21 6L20 6L20 5L21 5L21 3L20 3L20 2L21 2L21 0L20 0L20 1L16 1L16 0L15 0L15 1L14 1L14 0ZM9 2L9 3L10 3L10 2ZM16 3L16 5L15 5L15 7L14 7L14 6L13 6L13 8L12 8L12 9L11 9L11 10L12 10L12 9L14 9L14 11L12 11L12 12L11 12L11 13L10 13L10 14L9 14L9 15L10 15L10 16L12 16L12 15L13 15L13 17L14 17L14 18L13 18L13 19L11 19L11 21L14 21L14 22L12 22L12 23L13 23L13 24L11 24L11 25L14 25L14 27L15 27L15 25L14 25L14 23L15 23L15 21L17 21L17 22L19 22L19 21L20 21L20 20L18 20L18 21L17 21L17 19L18 19L18 18L17 18L17 14L18 14L18 16L19 16L19 15L20 15L20 17L19 17L19 19L22 19L22 20L23 20L23 18L24 18L24 17L25 17L25 18L27 18L27 19L24 19L24 20L26 20L26 21L25 21L25 22L27 22L27 23L25 23L25 25L27 25L27 26L28 26L28 25L27 25L27 23L28 23L28 20L27 20L27 19L28 19L28 18L27 18L27 15L28 15L28 14L27 14L27 11L28 11L28 10L24 10L24 9L23 9L23 11L22 11L22 10L20 10L20 9L16 9L16 8L17 8L17 7L18 7L18 8L19 8L19 7L20 7L20 6L19 6L19 7L18 7L18 5L20 5L20 4L19 4L19 3ZM16 5L16 7L17 7L17 5ZM0 8L0 11L2 11L2 12L3 12L3 11L2 11L2 10L3 10L3 9L2 9L2 8ZM14 8L14 9L15 9L15 11L14 11L14 13L13 13L13 12L12 12L12 13L13 13L13 14L14 14L14 17L15 17L15 18L14 18L14 21L15 21L15 20L16 20L16 16L15 16L15 15L16 15L16 13L20 13L20 14L21 14L21 16L23 16L23 15L24 15L24 16L25 16L25 17L26 17L26 16L25 16L25 14L26 14L26 15L27 15L27 14L26 14L26 13L24 13L24 11L23 11L23 13L20 13L20 11L19 11L19 12L18 12L18 10L17 10L17 11L16 11L16 9L15 9L15 8ZM1 9L1 10L2 10L2 9ZM21 11L21 12L22 12L22 11ZM15 12L15 13L14 13L14 14L15 14L15 13L16 13L16 12ZM23 13L23 14L22 14L22 15L23 15L23 14L24 14L24 13ZM10 14L10 15L11 15L11 14ZM4 16L4 18L5 18L5 20L8 20L8 19L9 19L9 18L7 18L7 17L5 17L5 16ZM0 17L0 18L1 18L1 17ZM11 17L11 18L12 18L12 17ZM20 17L20 18L21 18L21 17ZM22 17L22 18L23 18L23 17ZM6 18L6 19L7 19L7 18ZM0 20L0 21L3 21L3 20ZM21 21L21 24L24 24L24 21ZM22 22L22 23L23 23L23 22ZM16 23L16 25L17 25L17 26L18 26L18 27L23 27L23 25L21 25L21 26L18 26L18 25L19 25L19 24L20 24L20 23L18 23L18 25L17 25L17 23ZM0 0L0 7L7 7L7 0ZM1 1L1 6L6 6L6 1ZM2 2L2 5L5 5L5 2ZM22 0L22 7L29 7L29 0ZM23 1L23 6L28 6L28 1ZM24 2L24 5L27 5L27 2ZM0 22L0 29L7 29L7 22ZM1 23L1 28L6 28L6 23ZM2 24L2 27L5 27L5 24Z" fill="#000000"/></g></g></svg>
