<?xml version="1.0" encoding="UTF-8"?>
<svg xmlns="http://www.w3.org/2000/svg" version="1.1" width="300" height="300" viewBox="0 0 300 300"><rect x="0" y="0" width="300" height="300" fill="#ffffff"/><g transform="scale(10.345)"><g transform="translate(0,0)"><path fill-rule="evenodd" d="M9 0L9 1L8 1L8 2L9 2L9 3L8 3L8 4L10 4L10 7L11 7L11 8L6 8L6 9L7 9L7 10L6 10L6 11L5 11L5 8L0 8L0 12L1 12L1 13L0 13L0 15L2 15L2 14L3 14L3 16L2 16L2 17L1 17L1 16L0 16L0 21L1 21L1 18L2 18L2 17L4 17L4 16L6 16L6 17L5 17L5 18L4 18L4 19L8 19L8 23L11 23L11 22L13 22L13 23L16 23L16 22L17 22L17 23L18 23L18 22L19 22L19 23L20 23L20 25L19 25L19 26L20 26L20 25L21 25L21 26L22 26L22 27L18 27L18 28L17 28L17 29L18 29L18 28L21 28L21 29L23 29L23 28L25 28L25 29L27 29L27 28L28 28L28 26L29 26L29 25L28 25L28 24L25 24L25 23L27 23L27 22L29 22L29 20L28 20L28 19L27 19L27 16L28 16L28 15L27 15L27 12L28 12L28 11L27 11L27 12L25 12L25 9L26 9L26 8L25 8L25 9L24 9L24 8L23 8L23 9L22 9L22 8L20 8L20 7L21 7L21 6L20 6L20 7L19 7L19 5L20 5L20 4L21 4L21 3L20 3L20 2L21 2L21 1L20 1L20 0L19 0L19 1L18 1L18 0L17 0L17 1L15 1L15 0L14 0L14 2L15 2L15 3L16 3L16 4L19 4L19 5L17 5L17 6L16 6L16 5L15 5L15 4L14 4L14 3L12 3L12 2L13 2L13 1L11 1L11 2L10 2L10 0ZM19 1L19 2L20 2L20 1ZM16 2L16 3L18 3L18 2ZM10 3L10 4L11 4L11 7L12 7L12 8L14 8L14 9L12 9L12 10L11 10L11 9L10 9L10 11L12 11L12 12L10 12L10 13L9 13L9 12L8 12L8 10L7 10L7 11L6 11L6 12L8 12L8 13L5 13L5 12L4 12L4 9L3 9L3 11L1 11L1 12L4 12L4 14L5 14L5 15L6 15L6 16L7 16L7 15L8 15L8 19L10 19L10 20L9 20L9 22L11 22L11 20L12 20L12 21L13 21L13 20L14 20L14 19L13 19L13 16L14 16L14 17L15 17L15 18L16 18L16 19L17 19L17 20L15 20L15 21L14 21L14 22L16 22L16 21L17 21L17 20L18 20L18 18L19 18L19 21L20 21L20 20L21 20L21 19L22 19L22 18L21 18L21 16L20 16L20 18L19 18L19 17L17 17L17 16L18 16L18 14L19 14L19 15L21 15L21 14L22 14L22 13L23 13L23 15L22 15L22 17L23 17L23 20L24 20L24 19L25 19L25 21L26 21L26 20L27 20L27 19L25 19L25 18L24 18L24 17L26 17L26 16L27 16L27 15L26 15L26 13L25 13L25 12L24 12L24 11L23 11L23 10L24 10L24 9L23 9L23 10L22 10L22 9L20 9L20 8L19 8L19 7L18 7L18 6L17 6L17 8L19 8L19 9L15 9L15 8L16 8L16 6L15 6L15 5L12 5L12 4L11 4L11 3ZM19 3L19 4L20 4L20 3ZM8 5L8 7L9 7L9 5ZM12 6L12 7L13 7L13 6ZM14 6L14 8L15 8L15 6ZM27 8L27 9L28 9L28 10L29 10L29 9L28 9L28 8ZM14 9L14 10L15 10L15 11L14 11L14 12L13 12L13 13L14 13L14 14L12 14L12 13L10 13L10 14L8 14L8 15L9 15L9 16L10 16L10 17L9 17L9 18L10 18L10 19L11 19L11 15L10 15L10 14L12 14L12 15L14 15L14 14L15 14L15 17L16 17L16 18L17 18L17 17L16 17L16 16L17 16L17 14L15 14L15 13L14 13L14 12L15 12L15 11L16 11L16 12L17 12L17 13L19 13L19 14L20 14L20 13L22 13L22 12L23 12L23 13L24 13L24 14L25 14L25 13L24 13L24 12L23 12L23 11L21 11L21 12L20 12L20 11L19 11L19 10L20 10L20 9L19 9L19 10L18 10L18 12L17 12L17 10L15 10L15 9ZM19 12L19 13L20 13L20 12ZM28 13L28 14L29 14L29 13ZM6 14L6 15L7 15L7 14ZM23 15L23 16L24 16L24 15ZM6 17L6 18L7 18L7 17ZM28 17L28 18L29 18L29 17ZM20 18L20 19L21 19L21 18ZM2 19L2 21L4 21L4 20L3 20L3 19ZM5 20L5 21L7 21L7 20ZM21 21L21 24L24 24L24 21ZM22 22L22 23L23 23L23 22ZM8 24L8 29L16 29L16 27L17 27L17 25L18 25L18 24L17 24L17 25L16 25L16 24L12 24L12 25L10 25L10 24ZM12 25L12 26L11 26L11 28L14 28L14 27L15 27L15 26L16 26L16 25ZM22 25L22 26L23 26L23 27L22 27L22 28L23 28L23 27L24 27L24 26L26 26L26 27L25 27L25 28L27 28L27 26L28 26L28 25L24 25L24 26L23 26L23 25ZM9 26L9 27L10 27L10 26ZM0 0L0 7L7 7L7 0ZM1 1L1 6L6 6L6 1ZM2 2L2 5L5 5L5 2ZM22 0L22 7L29 7L29 0ZM23 1L23 6L28 6L28 1ZM24 2L24 5L27 5L27 2ZM0 22L0 29L7 29L7 22ZM1 23L1 28L6 28L6 23ZM2 24L2 27L5 27L5 24Z" fill="#000000"/></g></g></svg>
