<?xml version="1.0" encoding="UTF-8"?>
<svg xmlns="http://www.w3.org/2000/svg" version="1.1" width="300" height="300" viewBox="0 0 300 300"><rect x="0" y="0" width="300" height="300" fill="#ffffff"/><g transform="scale(10.345)"><g transform="translate(0,0)"><path fill-rule="evenodd" d="M12 0L12 3L8 3L8 4L9 4L9 5L8 5L8 7L9 7L9 8L6 8L6 9L5 9L5 8L0 8L0 11L1 11L1 14L0 14L0 15L2 15L2 17L0 17L0 21L1 21L1 18L2 18L2 21L3 21L3 19L5 19L5 20L6 20L6 21L8 21L8 23L10 23L10 24L8 24L8 29L9 29L9 26L12 26L12 25L16 25L16 26L15 26L15 27L14 27L14 28L10 28L10 29L16 29L16 27L17 27L17 25L18 25L18 24L17 24L17 25L16 25L16 24L12 24L12 25L11 25L11 22L13 22L13 23L16 23L16 22L17 22L17 23L18 23L18 22L19 22L19 23L20 23L20 25L19 25L19 26L20 26L20 25L21 25L21 26L22 26L22 27L18 27L18 28L17 28L17 29L18 29L18 28L21 28L21 29L23 29L23 28L25 28L25 29L27 29L27 28L28 28L28 26L29 26L29 25L28 25L28 24L29 24L29 23L27 23L27 22L29 22L29 20L28 20L28 19L27 19L27 16L28 16L28 15L27 15L27 12L28 12L28 11L27 11L27 12L25 12L25 9L26 9L26 8L25 8L25 9L24 9L24 8L23 8L23 9L22 9L22 8L20 8L20 7L21 7L21 6L20 6L20 7L19 7L19 5L20 5L20 4L21 4L21 3L20 3L20 2L21 2L21 1L20 1L20 0L19 0L19 1L18 1L18 0L17 0L17 2L16 2L16 1L15 1L15 0ZM8 1L8 2L9 2L9 1ZM10 1L10 2L11 2L11 1ZM13 1L13 3L14 3L14 4L12 4L12 5L11 5L11 4L10 4L10 6L9 6L9 7L10 7L10 6L11 6L11 7L12 7L12 8L10 8L10 9L9 9L9 12L12 12L12 10L14 10L14 9L15 9L15 10L17 10L17 12L16 12L16 11L15 11L15 12L14 12L14 11L13 11L13 12L14 12L14 13L12 13L12 14L11 14L11 13L10 13L10 14L7 14L7 13L6 13L6 12L8 12L8 11L6 11L6 12L5 12L5 11L4 11L4 12L3 12L3 9L1 9L1 11L2 11L2 13L4 13L4 14L5 14L5 16L3 16L3 17L2 17L2 18L4 18L4 17L6 17L6 18L8 18L8 16L9 16L9 18L10 18L10 14L11 14L11 15L12 15L12 16L11 16L11 17L12 17L12 18L11 18L11 20L12 20L12 21L13 21L13 20L14 20L14 19L13 19L13 17L12 17L12 16L14 16L14 17L15 17L15 18L16 18L16 19L17 19L17 20L15 20L15 21L14 21L14 22L16 22L16 21L17 21L17 20L18 20L18 18L19 18L19 21L20 21L20 20L21 20L21 19L22 19L22 18L21 18L21 16L20 16L20 18L19 18L19 17L17 17L17 16L18 16L18 14L19 14L19 15L21 15L21 14L22 14L22 13L23 13L23 15L22 15L22 17L23 17L23 20L24 20L24 19L25 19L25 21L26 21L26 20L27 20L27 19L25 19L25 18L24 18L24 17L26 17L26 16L27 16L27 15L26 15L26 13L25 13L25 12L24 12L24 11L23 11L23 10L24 10L24 9L23 9L23 10L22 10L22 9L20 9L20 8L19 8L19 7L18 7L18 6L17 6L17 5L19 5L19 4L20 4L20 3L19 3L19 4L15 4L15 3L14 3L14 2L15 2L15 1ZM19 1L19 2L20 2L20 1ZM17 2L17 3L18 3L18 2ZM14 4L14 5L13 5L13 6L12 6L12 7L13 7L13 6L14 6L14 7L15 7L15 9L19 9L19 10L18 10L18 12L17 12L17 13L19 13L19 14L20 14L20 13L22 13L22 12L23 12L23 13L24 13L24 14L25 14L25 13L24 13L24 12L23 12L23 11L21 11L21 12L20 12L20 11L19 11L19 10L20 10L20 9L19 9L19 8L16 8L16 7L17 7L17 6L16 6L16 5L15 5L15 4ZM14 5L14 6L15 6L15 7L16 7L16 6L15 6L15 5ZM12 8L12 9L10 9L10 11L11 11L11 10L12 10L12 9L14 9L14 8ZM27 8L27 9L28 9L28 10L29 10L29 9L28 9L28 8ZM6 9L6 10L8 10L8 9ZM19 12L19 13L20 13L20 12ZM14 13L14 14L13 14L13 15L14 15L14 16L15 16L15 17L16 17L16 18L17 18L17 17L16 17L16 16L17 16L17 14L15 14L15 13ZM28 13L28 14L29 14L29 13ZM6 14L6 15L7 15L7 14ZM14 14L14 15L15 15L15 14ZM23 15L23 16L24 16L24 15ZM6 16L6 17L7 17L7 16ZM28 17L28 18L29 18L29 17ZM20 18L20 19L21 19L21 18ZM6 19L6 20L8 20L8 21L10 21L10 20L8 20L8 19ZM21 21L21 24L24 24L24 21ZM22 22L22 23L23 23L23 22ZM25 23L25 24L27 24L27 23ZM22 25L22 26L23 26L23 27L22 27L22 28L23 28L23 27L24 27L24 26L26 26L26 27L25 27L25 28L27 28L27 26L28 26L28 25L24 25L24 26L23 26L23 25ZM0 0L0 7L7 7L7 0ZM1 1L1 6L6 6L6 1ZM2 2L2 5L5 5L5 2ZM22 0L22 7L29 7L29 0ZM23 1L23 6L28 6L28 1ZM24 2L24 5L27 5L27 2ZM0 22L0 29L7 29L7 22ZM1 23L1 28L6 28L6 23ZM2 24L2 27L5 27L5 24Z" fill="#000000"/></g></g></svg>
